# xmcd
#
# Track frame offsets:
#	150
#	20205
#	40810
#	57871
#	75020
#	97873
#	118939
#	136723
#	169773
#	187146
#	201790
#	217697
#
# Disc length: 3140 seconds
#
# Revision: 1
# Processed by: cddbd v1.5.2PL0 Copyright (c) Steve Scherf et al.
# Submitted via: audiograbber 1.83.01
#
DISCID=970c420c
DTITLE=Ryan Bingham - Roadhouse Sun
DYEAR=2009
DGENRE=Country
TTITLE0=Day Is Done
TTITLE1=Dylan's Hard Rain
TTITLE2=Tell My Mother I Miss Her So
TTITLE3=Country Roads
TTITLE4=Bluebird
TTITLE5=Snake Eyes
TTITLE6=Endless Ways
TTITLE7=Change Is
TTITLE8=Rollin Highway Blues
TTITLE9=Hey Hey Hurray
TTITLE10=Roadhouse Blues
TTITLE11=Wishing Well
EXTD=
EXTT0=
EXTT1=
EXTT2=
EXTT3=
EXTT4=
EXTT5=
EXTT6=
EXTT7=
EXTT8=
EXTT9=
EXTT10=
EXTT11=
PLAYORDER=
